<svg xmlns="http://www.w3.org/2000/svg" viewBox="0 0 128 128">
  <!-- 渐变定义 -->
  <defs>
    <!-- 主要渐变 -->
    <linearGradient id="dialogGradient" x1="0%" y1="0%" x2="100%" y2="100%">
      <stop offset="0%" stop-color="#5B8DEF"/>
      <stop offset="100%" stop-color="#32F5C0"/>
    </linearGradient>
    
    <!-- 光晕渐变 -->
    <radialGradient id="quantumGlow" cx="50%" cy="50%" r="50%">
      <stop offset="70%" stop-color="#5B8DEF" stop-opacity="0.2"/>
      <stop offset="100%" stop-color="#32F5C0" stop-opacity="0.05"/>
    </radialGradient>
    
    <!-- 动画定义 -->
    <style>
      .neuron {
        fill: #F0F4FF;
        animation: pulse 2s infinite;
      }
      .connection {
        stroke: url(#dialogGradient);
        stroke-width: 1.5;
        fill: none;
        stroke-dasharray: 12;
        animation: flow 3s linear infinite;
      }
      .wave {
        stroke: url(#dialogGradient);
        stroke-width: 2;
        fill: none;
        opacity: 0.6;
        animation: wave 2s ease-in-out infinite;
      }
      @keyframes pulse {
        0% { r: 2; opacity: 1; }
        50% { r: 4; opacity: 0.5; }
        100% { r: 2; opacity: 1; }
      }
      @keyframes flow {
        to { stroke-dashoffset: -24; }
      }
      @keyframes wave {
        50% { transform: translateY(5px); }
      }
    </style>
  </defs>

  <!-- 背景光晕 -->
  <circle cx="64" cy="64" r="56" fill="url(#quantumGlow)"/>

  <!-- 主对话框 -->
  <path d="M64 24
           a40 40 0 0 1 0 80
           a40 40 0 0 1 0 -80"
        fill="url(#dialogGradient)"
        fill-opacity="0.1"
        stroke="url(#dialogGradient)"
        stroke-width="2"
        stroke-dasharray="4 2"/>

  <!-- 神经网络连接 -->
  <path class="connection" d="M44 64 Q64 44 84 64"/>
  <path class="connection" d="M44 54 Q64 74 84 54"/>
  
  <!-- 神经元节点 -->
  <circle class="neuron" cx="44" cy="64" r="3"/>
  <circle class="neuron" cx="64" cy="64" r="3"/>
  <circle class="neuron" cx="84" cy="64" r="3"/>
  
  <!-- 底部波形 -->
  <path class="wave" d="M34 96 Q64 86 94 96"/>
  <path class="wave" d="M34 100 Q64 90 94 100" style="opacity: 0.4"/>
  <path class="wave" d="M34 104 Q64 94 94 104" style="opacity: 0.2"/>
</svg>